<?xml version="1.0" encoding="utf-8"?>
<!-- Generator: Adobe Illustrator 23.0.1, SVG Export Plug-In . SVG Version: 6.00 Build 0)  -->
<svg version="1.1" id="Layer_1" xmlns="http://www.w3.org/2000/svg" xmlns:xlink="http://www.w3.org/1999/xlink" x="0px" y="0px"
	 viewBox="0 0 192 192" style="enable-background:new 0 0 192 192;" xml:space="preserve">
<style type="text/css">
	.st0{fill:#4C4C4C;}
	.st1{fill:#333333;}
	.st2{fill:#666666;}
</style>
<path id="Path_6" class="st0" d="M177.6,144.1l-28.1-16.7V64.7L177.6,48V144.1z"/>
<path id="Path_7" class="st0" d="M13.6,48l28.1,16.7v62.7l-28.1,16.7V48z"/>
<path id="Path_8" class="st1" d="M95.8,0v33.4L41.7,64.7L13.6,48L95.8,0z"/>
<path id="Path_9" class="st1" d="M95.8,0v33.4l53.7,31.3L177.6,48L95.8,0z"/>
<path id="Path_10" class="st2" d="M95.4,192.1v-33.4l54.1-31.3l28.1,16.7L95.4,192.1z"/>
<path id="Path_11" class="st2" d="M95.4,192.1v-33.4l-53.7-31.3l-28.1,16.7L95.4,192.1z"/>
<ellipse id="Ellipse_2" class="st1" cx="95.8" cy="83.8" rx="12.2" ry="12.2"/>
<ellipse id="Ellipse_3" class="st1" cx="128.8" cy="96.1" rx="12.2" ry="12.2"/>
<ellipse id="Ellipse_4" class="st1" cx="62.5" cy="96.1" rx="12.2" ry="12.2"/>
</svg>
